<mxfile host="Electron" modified="2023-04-28T09:22:03.367Z" agent="Mozilla/5.0 (Windows NT 10.0; Win64; x64) AppleWebKit/537.36 (KHTML, like Gecko) draw.io/21.1.2 Chrome/106.0.5249.199 Electron/21.4.3 Safari/537.36" etag="mH57To7E0jYRuWV-KrDa" version="21.1.2" type="device">
  <diagram name="Page-1" id="AY-DaQWFqsoF29YaGm0Z">
    <mxGraphModel dx="1050" dy="629" grid="1" gridSize="10" guides="1" tooltips="1" connect="1" arrows="1" fold="1" page="1" pageScale="1" pageWidth="827" pageHeight="1169" math="0" shadow="0">
      <root>
        <mxCell id="0" />
        <mxCell id="1" parent="0" />
        <mxCell id="zK25YsE_ia8KrFw4nWPv-4" value="" style="rounded=0;whiteSpace=wrap;html=1;" parent="1" vertex="1">
          <mxGeometry x="240" y="40" width="390" height="960" as="geometry" />
        </mxCell>
        <mxCell id="zK25YsE_ia8KrFw4nWPv-44" value="" style="rounded=0;whiteSpace=wrap;html=1;" parent="1" vertex="1">
          <mxGeometry x="298.5" y="220" width="290" height="450" as="geometry" />
        </mxCell>
        <mxCell id="zK25YsE_ia8KrFw4nWPv-1" value="User" style="shape=umlActor;verticalLabelPosition=bottom;verticalAlign=top;html=1;outlineConnect=0;" parent="1" vertex="1">
          <mxGeometry x="120" y="240" width="40" height="80" as="geometry" />
        </mxCell>
        <mxCell id="zK25YsE_ia8KrFw4nWPv-2" value="Admin&lt;br&gt;" style="shape=umlActor;verticalLabelPosition=bottom;verticalAlign=top;html=1;outlineConnect=0;" parent="1" vertex="1">
          <mxGeometry x="120" y="800" width="40" height="80" as="geometry" />
        </mxCell>
        <mxCell id="zK25YsE_ia8KrFw4nWPv-24" style="orthogonalLoop=1;jettySize=auto;html=1;rounded=0;endArrow=none;endFill=0;exitX=0.03;exitY=0.634;exitDx=0;exitDy=0;exitPerimeter=0;" parent="1" source="zK25YsE_ia8KrFw4nWPv-5" target="zK25YsE_ia8KrFw4nWPv-1" edge="1">
          <mxGeometry relative="1" as="geometry">
            <mxPoint x="270" y="100" as="sourcePoint" />
          </mxGeometry>
        </mxCell>
        <mxCell id="zK25YsE_ia8KrFw4nWPv-25" value="" style="rounded=0;orthogonalLoop=1;jettySize=auto;html=1;endArrow=open;endFill=0;dashed=1;dashPattern=12 12;align=center;entryX=0;entryY=0.5;entryDx=0;entryDy=0;" parent="1" source="zK25YsE_ia8KrFw4nWPv-5" target="zK25YsE_ia8KrFw4nWPv-6" edge="1">
          <mxGeometry relative="1" as="geometry" />
        </mxCell>
        <mxCell id="zK25YsE_ia8KrFw4nWPv-5" value="Register account" style="ellipse;whiteSpace=wrap;html=1;" parent="1" vertex="1">
          <mxGeometry x="270" y="60" width="120" height="50" as="geometry" />
        </mxCell>
        <mxCell id="zK25YsE_ia8KrFw4nWPv-6" value="Log into account" style="ellipse;whiteSpace=wrap;html=1;" parent="1" vertex="1">
          <mxGeometry x="479" y="60" width="120" height="50" as="geometry" />
        </mxCell>
        <mxCell id="zK25YsE_ia8KrFw4nWPv-46" style="rounded=0;orthogonalLoop=1;jettySize=auto;html=1;endArrow=none;endFill=0;" parent="1" source="zK25YsE_ia8KrFw4nWPv-8" target="zK25YsE_ia8KrFw4nWPv-1" edge="1">
          <mxGeometry relative="1" as="geometry">
            <Array as="points">
              <mxPoint x="230" y="440" />
            </Array>
          </mxGeometry>
        </mxCell>
        <mxCell id="zK25YsE_ia8KrFw4nWPv-8" value="Add public destination to bucket list" style="ellipse;whiteSpace=wrap;html=1;" parent="1" vertex="1">
          <mxGeometry x="315" y="525" width="130" height="60" as="geometry" />
        </mxCell>
        <mxCell id="zK25YsE_ia8KrFw4nWPv-45" style="rounded=0;orthogonalLoop=1;jettySize=auto;html=1;endArrow=none;endFill=0;" parent="1" source="zK25YsE_ia8KrFw4nWPv-9" target="zK25YsE_ia8KrFw4nWPv-1" edge="1">
          <mxGeometry relative="1" as="geometry" />
        </mxCell>
        <mxCell id="zK25YsE_ia8KrFw4nWPv-9" value="Remove public destination from bucket list" style="ellipse;whiteSpace=wrap;html=1;" parent="1" vertex="1">
          <mxGeometry x="315" y="450" width="130" height="60" as="geometry" />
        </mxCell>
        <mxCell id="zK25YsE_ia8KrFw4nWPv-43" style="rounded=0;orthogonalLoop=1;jettySize=auto;html=1;endArrow=none;endFill=0;" parent="1" source="zK25YsE_ia8KrFw4nWPv-10" target="zK25YsE_ia8KrFw4nWPv-1" edge="1">
          <mxGeometry relative="1" as="geometry" />
        </mxCell>
        <mxCell id="zK25YsE_ia8KrFw4nWPv-10" value="Remove private destination from bucket list" style="ellipse;whiteSpace=wrap;html=1;" parent="1" vertex="1">
          <mxGeometry x="315.5" y="380" width="130" height="60" as="geometry" />
        </mxCell>
        <mxCell id="zK25YsE_ia8KrFw4nWPv-42" style="rounded=0;orthogonalLoop=1;jettySize=auto;html=1;endArrow=none;endFill=0;" parent="1" source="zK25YsE_ia8KrFw4nWPv-11" target="zK25YsE_ia8KrFw4nWPv-1" edge="1">
          <mxGeometry relative="1" as="geometry" />
        </mxCell>
        <mxCell id="zK25YsE_ia8KrFw4nWPv-11" value="Update private destination" style="ellipse;whiteSpace=wrap;html=1;" parent="1" vertex="1">
          <mxGeometry x="315" y="310" width="130" height="60" as="geometry" />
        </mxCell>
        <mxCell id="zK25YsE_ia8KrFw4nWPv-47" style="rounded=0;orthogonalLoop=1;jettySize=auto;html=1;endArrow=none;endFill=0;" parent="1" source="zK25YsE_ia8KrFw4nWPv-12" target="zK25YsE_ia8KrFw4nWPv-1" edge="1">
          <mxGeometry relative="1" as="geometry">
            <Array as="points">
              <mxPoint x="230" y="490" />
            </Array>
          </mxGeometry>
        </mxCell>
        <mxCell id="zK25YsE_ia8KrFw4nWPv-48" style="rounded=0;orthogonalLoop=1;jettySize=auto;html=1;dashed=1;dashPattern=12 12;endArrow=open;endFill=0;entryX=1;entryY=0.5;entryDx=0;entryDy=0;" parent="1" source="zK25YsE_ia8KrFw4nWPv-14" target="zK25YsE_ia8KrFw4nWPv-12" edge="1">
          <mxGeometry relative="1" as="geometry" />
        </mxCell>
        <mxCell id="zK25YsE_ia8KrFw4nWPv-12" value="View bucket list" style="ellipse;whiteSpace=wrap;html=1;" parent="1" vertex="1">
          <mxGeometry x="315" y="600" width="130" height="60" as="geometry" />
        </mxCell>
        <mxCell id="zK25YsE_ia8KrFw4nWPv-51" style="rounded=0;orthogonalLoop=1;jettySize=auto;html=1;endArrow=none;endFill=0;" parent="1" source="zK25YsE_ia8KrFw4nWPv-13" target="zK25YsE_ia8KrFw4nWPv-1" edge="1">
          <mxGeometry relative="1" as="geometry">
            <Array as="points">
              <mxPoint x="230" y="650" />
            </Array>
          </mxGeometry>
        </mxCell>
        <mxCell id="zK25YsE_ia8KrFw4nWPv-13" value="View all destination" style="ellipse;whiteSpace=wrap;html=1;" parent="1" vertex="1">
          <mxGeometry x="298.5" y="690" width="130" height="60" as="geometry" />
        </mxCell>
        <mxCell id="zK25YsE_ia8KrFw4nWPv-14" value="View bucket list filtered by attribute" style="ellipse;whiteSpace=wrap;html=1;" parent="1" vertex="1">
          <mxGeometry x="450.5" y="525" width="130" height="60" as="geometry" />
        </mxCell>
        <mxCell id="zK25YsE_ia8KrFw4nWPv-34" style="rounded=0;orthogonalLoop=1;jettySize=auto;html=1;dashed=1;dashPattern=12 12;endArrow=open;endFill=0;entryX=1;entryY=0.5;entryDx=0;entryDy=0;exitX=0;exitY=0.5;exitDx=0;exitDy=0;" parent="1" source="zK25YsE_ia8KrFw4nWPv-16" target="zK25YsE_ia8KrFw4nWPv-15" edge="1">
          <mxGeometry relative="1" as="geometry" />
        </mxCell>
        <mxCell id="zK25YsE_ia8KrFw4nWPv-16" value="Remove account" style="ellipse;whiteSpace=wrap;html=1;" parent="1" vertex="1">
          <mxGeometry x="474.5" y="150" width="130" height="60" as="geometry" />
        </mxCell>
        <mxCell id="zK25YsE_ia8KrFw4nWPv-41" style="rounded=0;orthogonalLoop=1;jettySize=auto;html=1;endArrow=none;endFill=0;" parent="1" source="zK25YsE_ia8KrFw4nWPv-15" target="zK25YsE_ia8KrFw4nWPv-1" edge="1">
          <mxGeometry relative="1" as="geometry">
            <mxPoint x="170" y="260" as="targetPoint" />
          </mxGeometry>
        </mxCell>
        <mxCell id="zK25YsE_ia8KrFw4nWPv-15" value="Modify account" style="ellipse;whiteSpace=wrap;html=1;" parent="1" vertex="1">
          <mxGeometry x="265.5" y="150" width="130" height="60" as="geometry" />
        </mxCell>
        <mxCell id="zK25YsE_ia8KrFw4nWPv-52" style="rounded=0;orthogonalLoop=1;jettySize=auto;html=1;endArrow=none;endFill=0;" parent="1" source="zK25YsE_ia8KrFw4nWPv-17" target="zK25YsE_ia8KrFw4nWPv-2" edge="1">
          <mxGeometry relative="1" as="geometry" />
        </mxCell>
        <mxCell id="zK25YsE_ia8KrFw4nWPv-17" value="Create public destination" style="ellipse;whiteSpace=wrap;html=1;" parent="1" vertex="1">
          <mxGeometry x="298.5" y="770" width="130" height="60" as="geometry" />
        </mxCell>
        <mxCell id="zK25YsE_ia8KrFw4nWPv-54" style="rounded=0;orthogonalLoop=1;jettySize=auto;html=1;endArrow=none;endFill=0;" parent="1" source="zK25YsE_ia8KrFw4nWPv-18" target="zK25YsE_ia8KrFw4nWPv-2" edge="1">
          <mxGeometry relative="1" as="geometry" />
        </mxCell>
        <mxCell id="zK25YsE_ia8KrFw4nWPv-18" value="Update public destination" style="ellipse;whiteSpace=wrap;html=1;" parent="1" vertex="1">
          <mxGeometry x="298.5" y="850" width="130" height="60" as="geometry" />
        </mxCell>
        <mxCell id="zK25YsE_ia8KrFw4nWPv-55" style="rounded=0;orthogonalLoop=1;jettySize=auto;html=1;endArrow=none;endFill=0;" parent="1" source="zK25YsE_ia8KrFw4nWPv-19" target="zK25YsE_ia8KrFw4nWPv-2" edge="1">
          <mxGeometry relative="1" as="geometry" />
        </mxCell>
        <mxCell id="zK25YsE_ia8KrFw4nWPv-19" value="Remove public destination" style="ellipse;whiteSpace=wrap;html=1;" parent="1" vertex="1">
          <mxGeometry x="304" y="920" width="130" height="60" as="geometry" />
        </mxCell>
        <mxCell id="zK25YsE_ia8KrFw4nWPv-26" value="&amp;lt;&amp;lt;includes&amp;gt;&amp;gt;" style="text;html=1;strokeColor=none;fillColor=none;align=center;verticalAlign=middle;whiteSpace=wrap;rounded=0;fontSize=10;rotation=0;" parent="1" vertex="1">
          <mxGeometry x="400" y="60" width="70" height="20" as="geometry" />
        </mxCell>
        <mxCell id="zK25YsE_ia8KrFw4nWPv-29" style="rounded=0;orthogonalLoop=1;jettySize=auto;html=1;endArrow=none;endFill=0;exitX=0;exitY=0.5;exitDx=0;exitDy=0;" parent="1" source="zK25YsE_ia8KrFw4nWPv-7" target="zK25YsE_ia8KrFw4nWPv-1" edge="1">
          <mxGeometry relative="1" as="geometry" />
        </mxCell>
        <mxCell id="zK25YsE_ia8KrFw4nWPv-7" value="Create private destination" style="ellipse;whiteSpace=wrap;html=1;" parent="1" vertex="1">
          <mxGeometry x="320" y="250" width="120" height="50" as="geometry" />
        </mxCell>
        <mxCell id="zK25YsE_ia8KrFw4nWPv-37" value="&amp;lt;&amp;lt;extends&amp;gt;&amp;gt;" style="text;html=1;strokeColor=none;fillColor=none;align=center;verticalAlign=middle;whiteSpace=wrap;rounded=0;fontSize=10;rotation=0;" parent="1" vertex="1">
          <mxGeometry x="402" y="160" width="70" height="20" as="geometry" />
        </mxCell>
        <mxCell id="zK25YsE_ia8KrFw4nWPv-38" value="&lt;b&gt;&lt;font style=&quot;font-size: 12px;&quot;&gt;CRUD&lt;/font&gt;&lt;/b&gt;" style="text;html=1;strokeColor=none;fillColor=none;align=center;verticalAlign=middle;whiteSpace=wrap;rounded=0;fontSize=10;rotation=0;" parent="1" vertex="1">
          <mxGeometry x="408.5" y="220" width="70" height="20" as="geometry" />
        </mxCell>
        <mxCell id="zK25YsE_ia8KrFw4nWPv-49" value="&amp;lt;&amp;lt;extends&amp;gt;&amp;gt;" style="text;html=1;strokeColor=none;fillColor=none;align=center;verticalAlign=middle;whiteSpace=wrap;rounded=0;fontSize=10;rotation=-45;" parent="1" vertex="1">
          <mxGeometry x="450.5" y="610" width="70" height="20" as="geometry" />
        </mxCell>
      </root>
    </mxGraphModel>
  </diagram>
</mxfile>
